<svg width="1100" height="430" viewBox="0 0 1100 430" fill="none" xmlns="http://www.w3.org/2000/svg" role="img" aria-label="Dun1702 futuristic command center">
  <defs>
    <linearGradient id="bg" x1="0" y1="0" x2="1100" y2="430" gradientUnits="userSpaceOnUse">
      <stop stop-color="#070A12"/>
      <stop offset="0.45" stop-color="#0B1020"/>
      <stop offset="1" stop-color="#111827"/>
    </linearGradient>
    <linearGradient id="beam" x1="120" y1="0" x2="980" y2="430" gradientUnits="userSpaceOnUse">
      <stop stop-color="#00D9FF"/>
      <stop offset="0.5" stop-color="#7C3AED"/>
      <stop offset="1" stop-color="#F97316"/>
    </linearGradient>
    <radialGradient id="core" cx="0" cy="0" r="1" gradientUnits="userSpaceOnUse" gradientTransform="translate(550 210) rotate(90) scale(150 260)">
      <stop stop-color="#00D9FF" stop-opacity="0.4"/>
      <stop offset="0.55" stop-color="#7C3AED" stop-opacity="0.15"/>
      <stop offset="1" stop-color="#020617" stop-opacity="0"/>
    </radialGradient>
    <filter id="glow" x="-50%" y="-50%" width="200%" height="200%">
      <feGaussianBlur stdDeviation="4" result="blur"/>
      <feColorMatrix in="blur" type="matrix" values="0 0 0 0 0 0 0 0 0 0.85 0 0 0 0 1 0 0 0 0.75 0"/>
      <feBlend in="SourceGraphic" mode="screen"/>
    </filter>
    <pattern id="grid" width="42" height="42" patternUnits="userSpaceOnUse">
      <path d="M 42 0 L 0 0 0 42" fill="none" stroke="#263244" stroke-width="1" opacity="0.35"/>
    </pattern>
    <style>
      .mono { font-family: ui-monospace, SFMono-Regular, Menlo, Consolas, monospace; }
      .label { fill: #E6EDF3; font-size: 18px; font-weight: 700; letter-spacing: 2px; }
      .tiny { fill: #8BA3B8; font-size: 13px; letter-spacing: 1px; }
      .cyan { stroke: #00D9FF; }
      .orange { stroke: #F97316; }
      .violet { stroke: #7C3AED; }
      @keyframes pulse { 0%, 100% { opacity: .35; } 50% { opacity: 1; } }
      @keyframes spin { to { transform: rotate(360deg); } }
      @keyframes dash { to { stroke-dashoffset: -180; } }
      @keyframes float { 0%,100% { transform: translateY(0); } 50% { transform: translateY(-8px); } }
      @keyframes scan { 0% { transform: translateX(-980px); opacity: 0; } 20% { opacity: .9; } 80% { opacity: .9; } 100% { transform: translateX(980px); opacity: 0; } }
      .pulse { animation: pulse 2.4s ease-in-out infinite; }
      .spin { transform-origin: 550px 210px; animation: spin 18s linear infinite; }
      .dash { stroke-dasharray: 12 16; animation: dash 5s linear infinite; }
      .float { animation: float 4s ease-in-out infinite; }
      .scan { animation: scan 4.8s ease-in-out infinite; }
    </style>
  </defs>

  <rect width="1100" height="430" rx="26" fill="url(#bg)"/>
  <rect x="1" y="1" width="1098" height="428" rx="25" stroke="url(#beam)" stroke-width="2" opacity="0.75"/>
  <rect width="1100" height="430" rx="26" fill="url(#grid)"/>
  <rect width="1100" height="430" rx="26" fill="url(#core)"/>

  <g class="scan">
    <rect x="545" y="14" width="3" height="402" fill="#00D9FF" opacity="0.9"/>
    <rect x="548" y="14" width="120" height="402" fill="url(#beam)" opacity="0.08"/>
  </g>

  <g opacity="0.72">
    <path d="M150 330 C270 245 335 245 450 185" class="cyan dash" stroke-width="2" fill="none"/>
    <path d="M950 330 C830 245 765 245 650 185" class="orange dash" stroke-width="2" fill="none"/>
    <path d="M200 95 C330 150 390 135 490 188" class="violet dash" stroke-width="2" fill="none"/>
    <path d="M900 95 C770 150 710 135 610 188" class="cyan dash" stroke-width="2" fill="none"/>
  </g>

  <g class="spin" filter="url(#glow)" opacity="0.95">
    <circle cx="550" cy="210" r="115" stroke="url(#beam)" stroke-width="3" fill="none" stroke-dasharray="32 18"/>
    <circle cx="550" cy="210" r="82" stroke="#00D9FF" stroke-width="2" fill="none" stroke-dasharray="8 12"/>
    <path d="M550 78 L664 144 L664 276 L550 342 L436 276 L436 144 Z" stroke="#7C3AED" stroke-width="2" fill="none" opacity="0.75"/>
  </g>

  <g filter="url(#glow)">
    <circle cx="550" cy="210" r="46" fill="#07111F" stroke="#00D9FF" stroke-width="3"/>
    <circle cx="550" cy="210" r="20" fill="#00D9FF" opacity="0.2"/>
    <path d="M530 211 L544 225 L572 194" stroke="#22C55E" stroke-width="7" stroke-linecap="round" stroke-linejoin="round"/>
  </g>

  <g class="mono">
    <text x="550" y="42" text-anchor="middle" class="label">DUN1702 MISSION CONTROL</text>
    <text x="550" y="390" text-anchor="middle" class="tiny">FULL STACK SYSTEMS / CLOUD / 3D WEB / AI AUTOMATION / EMBEDDED EDGE</text>
  </g>

  <g class="mono float">
    <rect x="70" y="78" width="235" height="86" rx="16" fill="#0B1220" stroke="#00D9FF" opacity="0.92"/>
    <text x="92" y="112" class="tiny">FRONTEND COCKPIT</text>
    <text x="92" y="142" fill="#E6EDF3" font-size="20" font-weight="700">React / 3D UI / UX</text>
    <circle cx="276" cy="106" r="8" fill="#22C55E" class="pulse"/>
  </g>

  <g class="mono float" style="animation-delay: .4s">
    <rect x="795" y="78" width="235" height="86" rx="16" fill="#0B1220" stroke="#F97316" opacity="0.92"/>
    <text x="817" y="112" class="tiny">BACKEND CORE</text>
    <text x="817" y="142" fill="#E6EDF3" font-size="20" font-weight="700">APIs / Auth / Data</text>
    <circle cx="1000" cy="106" r="8" fill="#F97316" class="pulse"/>
  </g>

  <g class="mono float" style="animation-delay: .8s">
    <rect x="70" y="262" width="235" height="86" rx="16" fill="#0B1220" stroke="#7C3AED" opacity="0.92"/>
    <text x="92" y="296" class="tiny">AI AND OPTIMIZATION</text>
    <text x="92" y="326" fill="#E6EDF3" font-size="20" font-weight="700">Automate / Compute</text>
    <circle cx="276" cy="290" r="8" fill="#7C3AED" class="pulse"/>
  </g>

  <g class="mono float" style="animation-delay: 1.2s">
    <rect x="795" y="262" width="235" height="86" rx="16" fill="#0B1220" stroke="#22C55E" opacity="0.92"/>
    <text x="817" y="296" class="tiny">EMBEDDED EDGE</text>
    <text x="817" y="326" fill="#E6EDF3" font-size="20" font-weight="700">C/C++ / IoT / MQTT</text>
    <circle cx="1000" cy="290" r="8" fill="#22C55E" class="pulse"/>
  </g>

  <g opacity="0.9" filter="url(#glow)">
    <circle cx="382" cy="210" r="5" fill="#00D9FF" class="pulse"/>
    <circle cx="718" cy="210" r="5" fill="#F97316" class="pulse"/>
    <circle cx="550" cy="92" r="4" fill="#7C3AED" class="pulse"/>
    <circle cx="550" cy="328" r="4" fill="#22C55E" class="pulse"/>
  </g>
</svg>
